PathFileType	4	(X/Y/Z)	D:\Long Term Storage\D'Arcy Smith\Coord12.trc
DataRate	CameraRate	NumFrames	NumMarkers	Units	OrigDataRate	OrigDataStartFrame	OrigNumFrames
120.00	120.00	      60	4	mm	120.00	2407	      4812
Frame#	Time	M1			M2			M3			M4			
		X1	Y1	Z1	X2	Y2	Z2	X3	Y3	Z3	X4	Y4	Z4	

2407	20.050	1026.69189	279.79672	489.90698	1614.26721	335.38510	647.23993							
2408	20.058	1026.49805	278.81763	486.99365	1614.37708	332.91202	643.45831							
2409	20.067	1026.09973	278.72681	483.16583	1614.92725	331.01492	639.65009							
2410	20.075	1026.15808	277.76471	479.03619	1615.29517	328.71875	635.15112							
2411	20.083	1025.68933	277.37341	474.92429	1615.45349	325.71371	629.98273							
2412	20.092	1025.50793	277.11801	470.37888	1615.71741	323.11426	624.45331							
2413	20.100	1025.06494	276.99112	465.67813	1616.07190	320.56628	618.40491							
2414	20.108	1024.56445	277.09839	460.53223	1616.34802	317.94278	611.90479							
2415	20.117	1024.31250	277.21594	455.61331	1616.57019	315.27142	604.92480							
2416	20.125	1024.04822	277.67926	450.07266	1616.78931	312.55859	597.48444							
2417	20.133	1023.70776	278.32825	444.51169	1616.63562	309.78256	589.99060							
2418	20.142	1023.68054	278.84741	438.64795	1616.83459	307.62021	581.77094							
2419	20.150	1023.34955	279.46939	432.76245	1616.95325	305.23483	572.86505							
2420	20.158	1022.93860	280.47784	426.51547	1616.94397	303.11334	563.64886							
2421	20.167	1022.76190	281.69910	420.20593	1616.95911	300.99631	553.87164							
2422	20.175	1022.49561	282.88681	413.80347	1616.91992	299.11829	543.66638							
2423	20.183	1022.27167	284.55646	406.85684	1616.82336	297.40790	533.20416							
2424	20.192	1022.19049	286.23376	400.08542	1617.23242	295.92340	522.33643							
2425	20.200	1022.14655	288.05151	393.20291	1616.86353	294.84552	511.09799							
2426	20.208	1022.11694	290.14035	386.13354	1617.23779	293.84967	499.23788							
2427	20.217	1022.02527	292.06879	378.75903	1616.66150	293.33646	487.67761							
2428	20.225	1022.14111	294.40347	371.29709	1616.98096	293.34857	476.03082							
2429	20.233	1022.26453	296.81134	363.84573	1616.61743	293.08121	463.40179							
2430	20.242	1022.21100	299.49857	356.36685	1616.56165	293.49625	450.63998							
2431	20.250	1022.37402	302.15823	348.88147	1616.71179	294.96225	438.04880							
2432	20.258	1022.45496	305.09039	341.14581	1616.67041	296.29541	425.11557							
2433	20.267	1022.92999	308.16666	333.65741	1616.45410	298.15875	412.43433							
2434	20.275	1023.15192	311.74362	324.76831	1616.17114	300.27866	399.79266							
2435	20.283	1023.30859	314.94894	317.50583	1616.06543	302.77435	387.08862							
2436	20.292	1023.69537	318.27936	310.08743	1616.09741	305.58600	374.61249							
2437	20.300	1023.81293	321.71658	302.75320	1616.48694	308.71323	362.35040							
2438	20.308	1024.24451	325.20496	295.43356	1616.42664	312.32596	350.18057							
2439	20.317	1024.51697	328.85049	288.33713	1616.49597	316.40491	338.34033							
2440	20.325	1024.82678	332.54083	281.32773	1616.27673	320.31195	326.58209							
2441	20.333	1025.26868	336.16116	274.46155	1615.33777	324.98407	315.24432							
2442	20.342	1025.68152	339.85443	267.83713	1615.14685	329.58286	305.28745							
2443	20.350	1025.57715	343.42850	261.38251	1614.86047	334.26022	293.92279							
2444	20.358	1025.81287	347.17755	255.18547	1614.61560	339.31741	283.55603							
2445	20.367	1026.72607	350.99640	249.18810	1614.82764	344.85559	273.94702							
2446	20.375	1026.96399	354.63147	243.53821	1614.47668	349.86182	264.84341							
2447	20.383	1027.24268	358.12143	238.24600	1614.25366	355.01694	255.98524							
2448	20.392	1027.54919	361.55765	233.08830	1614.12622	360.14865	247.67839							
2449	20.400	1027.68213	364.87476	228.29524	1614.08057	365.36591	240.04436							
2450	20.408	1027.89722	368.12790	223.85629	1613.90796	370.37543	232.82031							
2451	20.417	1027.32788	371.40375	219.68440	1613.85205	375.27679	226.12807							
2452	20.425	1028.06116	374.08798	215.99313	1613.79749	379.97583	219.99622							
2453	20.433	1027.61450	377.23193	212.45128	1613.92725	384.42554	214.48900							
2454	20.442	1027.17688	379.43634	209.34760	1613.86804	388.60626	209.34811							
2455	20.450	1027.45789	381.37183	206.70555	1613.92798	392.41016	204.90579							
2456	20.458	1027.29504	384.09058	204.07948	1613.83643	395.91327	200.97017							
2457	20.467	1026.80798	385.56522	202.17831	1614.29102	399.23853	197.59570							
2458	20.475	1027.01892	387.38211	200.26073	1614.46399	402.09372	194.69038							
2459	20.483	1026.25269	388.38333	198.96608	1614.65417	404.40857	192.39151							
2460	20.492	1026.33337	389.14053	197.98804	1615.07397	406.54178	190.58134							
2461	20.500	1025.50244	390.13409	197.19846	1615.46252	408.00381	189.33112							
2462	20.508	1025.05676	390.58945	196.83159	1615.71643	408.95563	188.46062							
2463	20.517	1024.53552	390.64075	196.77930	1616.19409	409.58011	188.11449							
2464	20.525	1023.86304	390.41547	197.01067	1616.83069	409.66925	188.24786							
2465	20.533	1023.57843	390.13928	197.56366	1617.31335	409.20331	188.80986							
2466	20.542	1023.01880	388.62552	198.63721	1617.98096	408.32904	189.76633							
